<svg xmlns="http://www.w3.org/2000/svg" viewBox="-49 141 512 512"><path d="M207 653a20.663 20.663 0 0 1-11.473-3.474c-2.044-1.362-50.637-33.978-99.808-85.881-29.176-30.796-52.501-62.052-69.326-92.898C4.756 431.079-6.215 391.872-6.215 354.215c0-56.952 22.178-110.495 62.449-150.766C96.505 163.178 150.049 141 207 141s110.495 22.178 150.766 62.449c40.272 40.271 62.449 93.814 62.449 150.766 0 37.656-10.972 76.863-32.609 116.532-16.825 30.847-40.15 62.103-69.326 92.898-49.169 51.903-97.763 84.518-99.808 85.881A20.658 20.658 0 0 1 207 653zm0-470.636c-94.759 0-171.85 77.092-171.85 171.851 0 116.524 131.676 222.941 171.851 252.688 40.158-29.736 171.85-136.155 171.85-252.688-.001-94.758-77.092-171.851-171.851-171.851z"/><path d="M207 439.074c-46.791 0-84.86-38.068-84.86-84.86s38.068-84.86 84.86-84.86 84.86 38.068 84.86 84.86c.001 46.792-38.068 84.86-84.86 84.86zm0-128.355c-23.983 0-43.495 19.512-43.495 43.495 0 23.983 19.512 43.495 43.495 43.495 23.984 0 43.495-19.512 43.495-43.495 0-23.983-19.511-43.495-43.495-43.495z"/></svg>