<svg xmlns="http://www.w3.org/2000/svg" viewBox="-49 188.065 512 417.87"><path d="M395.253 605.935H18.747c-37.356 0-67.745-30.391-67.745-67.745V255.81c0-37.355 30.391-67.745 67.745-67.745h376.506c37.355 0 67.745 30.391 67.745 67.745v282.38c0 37.354-30.391 67.745-67.745 67.745zM18.747 229.429c-14.546 0-26.381 11.835-26.381 26.381v282.38c0 14.546 11.835 26.381 26.381 26.381h376.506c14.546 0 26.381-11.835 26.381-26.381V255.81c0-14.546-11.835-26.381-26.381-26.381H18.747z"/><path d="M207 441.213c-4.15 0-8.299-1.246-11.861-3.738L-40.177 272.753c-9.357-6.55-11.633-19.446-5.083-28.803 6.55-9.357 19.446-11.634 28.803-5.083l223.456 156.418 223.456-156.418c9.361-6.55 22.255-4.274 28.804 5.083 6.55 9.357 4.274 22.253-5.082 28.803L218.86 437.474a20.656 20.656 0 0 1-11.86 3.739z"/></svg>