<svg id="Слой_1" xmlns="http://www.w3.org/2000/svg" xmlns:xlink="http://www.w3.org/1999/xlink" viewBox="0 0 374.9 387"><style>.st0{clip-path:url(#SVGID_2_)}</style><defs><path id="SVGID_1_" d="M0 0h374.9v387H0z"/></defs><clipPath id="SVGID_2_"><use xlink:href="#SVGID_1_" overflow="visible"/></clipPath><path class="st0" d="M260.4 252.3c24.7-26.7 40.1-62.6 40.1-102C300.6 67.5 233.2 0 150.3 0 67.3 0 0 67.5 0 150.3 0 233 67.3 300.6 150.3 300.6c33.8 0 64.8-11.1 90-29.9L352 382.4c2.7 2.7 6.1 4.1 9.5 4.1 3.4 0 7-1.4 9.5-4.1 5.2-5.2 5.2-13.8 0-19.3L260.4 252.3zm-233.2-102c0-67.8 55.1-123.1 123.1-123.1 67.8 0 123.1 55.1 123.1 123.1s-55.1 123.1-123.1 123.1S27.2 218.1 27.2 150.3zm0 0"/></svg>