<svg xmlns="http://www.w3.org/2000/svg" viewBox="0 0 79.4 65.6"><path d="M32 37.1c0 2.8-2.3 5-5 5-2.8 0-5-2.3-5-5 0-2.8 2.3-5 5-5s5 2.3 5 5zm0 0"/><path d="M75.9 36.1l3.4-26.9L54.9 0 25.5 14 0 3.2l3.4 28.7L.1 60.1l27.1 5.1L55 59.9l24.4 5.6-3.5-29.4zM54.8 2.8L76.4 11l-1.5 11.8-21.6-5.5 1.5-14.5zm-2.9 1.5l-1.1 12.3-14.9 1.9-.1.3c0 .1-1.7 6.5-3.6 9.4-1.2-.7-2.5-1.2-3.9-1.3L27 16.2 51.9 4.3zm-2.3 27.5l-13 2c-.7-2-2-3.7-3.6-4.9 1.7-2.7 3.2-8 3.6-9.4l14.1-1.8-1.1 14.1zM24.4 16.4L25.6 27c-3.9.5-7.2 3.3-8.4 7L6.1 32.3 5 22c3.7-.2 6.4-1.4 8.2-3.6 1.6-1.9 2-4.2 2.1-5.9l9.1 3.9zm-21.2-9l11.2 4.7c0 1.6-.4 3.8-1.9 5.7-1.6 1.9-4.1 3-7.5 3.2L3.2 7.4zM3.1 58l2.7-23.1 10.9 1.7v.5c0 2.4.8 4.6 2.2 6.4L13.2 48l-1.8 11.5L3.1 58zm21.3 4l-12-2.3 1.7-11.1 5.4-4.3c1.7 1.7 3.9 2.9 6.4 3.1L24.4 62zm-5.7-24.9c0-4.5 3.7-8.2 8.2-8.2 4.5 0 8.2 3.7 8.2 8.2 0 4.5-3.7 8.2-8.2 8.2-4.5.1-8.2-3.6-8.2-8.2zm8.6 25.4h-.2l1.6-15.2c4.9-.8 8.6-5 8.6-10.1v-.8L50 34.5l1.1 10.8c-5.6.3-9.7 2-12.3 5.1-3.1 3.7-3.2 8.3-3 10.6l-8.5 1.5zm9.3-1.8c-.1-2.2.1-6.4 2.8-9.7 2.4-2.9 6.4-4.5 11.7-4.8l1.1 11.5-15.6 3zm16.7-42.4l21.5 5.4-1.3 10.2-21.3-2.6 1.1-13zm17.3 24.4l-9.8-1.2L62.6 59l-7.9-1.7L52.5 34h.2l20.6 2.6 3 25.6-12.7-2.9-1.7-16.5 8.7 1v-1.1zm0 0"/></svg>