<svg xmlns="http://www.w3.org/2000/svg" xmlns:xlink="http://www.w3.org/1999/xlink" viewBox="0 0 31.3 43.9"><defs><path id="a" d="M.3 0h31v44.9H.3z"/></defs><clipPath id="b"><use xlink:href="#a" overflow="visible"/></clipPath><path d="M26.5 4.6C23.6 1.7 19.7.1 15.7.1c-4.1 0-8 1.6-10.9 4.5C-.6 10-1.2 20 3.4 26.2L15.7 44 28 26.3c4.5-6.2 3.9-16.3-1.5-21.7zM15.8 20.9c-3.1 0-5.6-2.5-5.6-5.6 0-3.1 2.5-5.6 5.6-5.6 3.1 0 5.6 2.5 5.6 5.6 0 3.1-2.5 5.6-5.6 5.6zm0 0" clip-path="url(#b)"/><path fill="none" d="M-32.7-28h94v97h-94z"/></svg>