<?xml version="1.0" encoding="iso-8859-1"?>
<!-- Generator: Adobe Illustrator 20.1.0, SVG Export Plug-In . SVG Version: 6.00 Build 0)  -->
<svg version="1.1" id="Layer_1" xmlns="http://www.w3.org/2000/svg" xmlns:xlink="http://www.w3.org/1999/xlink" x="0px" y="0px"
	 viewBox="-49 141 512 512" style="enable-background:new -49 141 512 512;" xml:space="preserve">
<path d="M207,653c-3.999,0-7.999-1.158-11.473-3.474c-2.044-1.362-50.637-33.978-99.808-85.881
	c-29.176-30.796-52.501-62.052-69.326-92.898C4.756,431.079-6.215,391.872-6.215,354.215c0-56.952,22.178-110.495,62.449-150.766
	C96.505,163.178,150.049,141,207,141s110.495,22.178,150.766,62.449c40.272,40.271,62.449,93.814,62.449,150.766
	c0,37.656-10.972,76.863-32.609,116.532c-16.825,30.847-40.15,62.103-69.326,92.898c-49.169,51.903-97.763,84.518-99.808,85.881
	C214.999,651.842,210.999,653,207,653z M207,182.364c-94.759,0-171.85,77.092-171.85,171.851
	c0,116.524,131.676,222.941,171.851,252.688c40.158-29.736,171.85-136.155,171.85-252.688
	C378.85,259.457,301.759,182.364,207,182.364z"/>
<path d="M207,439.074c-46.791,0-84.86-38.068-84.86-84.86s38.068-84.86,84.86-84.86s84.86,38.068,84.86,84.86
	C291.861,401.006,253.792,439.074,207,439.074z M207,310.719c-23.983,0-43.495,19.512-43.495,43.495
	c0,23.983,19.512,43.495,43.495,43.495c23.984,0,43.495-19.512,43.495-43.495C250.495,330.231,230.984,310.719,207,310.719z"/>
</svg>
