<?xml version="1.0" encoding="iso-8859-1"?>
<!-- Generator: Adobe Illustrator 20.1.0, SVG Export Plug-In . SVG Version: 6.00 Build 0)  -->
<svg version="1.1" id="Layer_1" xmlns="http://www.w3.org/2000/svg" xmlns:xlink="http://www.w3.org/1999/xlink" x="0px" y="0px"
	 viewBox="-49 188.065 512 417.87" style="enable-background:new -49 188.065 512 417.87;" xml:space="preserve">
<path d="M395.253,605.935H18.747c-37.356,0-67.745-30.391-67.745-67.745V255.81c0-37.355,30.391-67.745,67.745-67.745h376.506
	c37.355,0,67.745,30.391,67.745,67.745V538.19C462.998,575.544,432.607,605.935,395.253,605.935z M18.747,229.429
	c-14.546,0-26.381,11.835-26.381,26.381V538.19c0,14.546,11.835,26.381,26.381,26.381h376.506c14.546,0,26.381-11.835,26.381-26.381
	V255.81c0-14.546-11.835-26.381-26.381-26.381H18.747z"/>
<path d="M207,441.213c-4.15,0-8.299-1.246-11.861-3.738L-40.177,272.753c-9.357-6.55-11.633-19.446-5.083-28.803
	c6.55-9.357,19.446-11.634,28.803-5.083l223.456,156.418l223.456-156.418c9.361-6.55,22.255-4.274,28.804,5.083
	c6.55,9.357,4.274,22.253-5.082,28.803L218.86,437.474C215.299,439.967,211.149,441.213,207,441.213z"/>
</svg>
