<?xml version="1.0" encoding="utf-8"?>
<!-- Generator: Adobe Illustrator 20.1.0, SVG Export Plug-In . SVG Version: 6.00 Build 0)  -->
<svg version="1.1" id="Слой_1" xmlns="http://www.w3.org/2000/svg" xmlns:xlink="http://www.w3.org/1999/xlink" x="0px" y="0px"
	 viewBox="0 0 374.9 387" style="enable-background:new 0 0 374.9 387;" xml:space="preserve">
<style type="text/css">
	.st0{clip-path:url(#SVGID_2_);}
</style>
<g>
	<g>
		<defs>
			<rect id="SVGID_1_" width="374.9" height="387"/>
		</defs>
		<clipPath id="SVGID_2_">
			<use xlink:href="#SVGID_1_"  style="overflow:visible;"/>
		</clipPath>
		<path class="st0" d="M260.4,252.3c24.7-26.7,40.1-62.6,40.1-102C300.6,67.5,233.2,0,150.3,0C67.3,0,0,67.5,0,150.3
			C0,233,67.3,300.6,150.3,300.6c33.8,0,64.8-11.1,90-29.9L352,382.4c2.7,2.7,6.1,4.1,9.5,4.1c3.4,0,7-1.4,9.5-4.1
			c5.2-5.2,5.2-13.8,0-19.3L260.4,252.3z M27.2,150.3c0-67.8,55.1-123.1,123.1-123.1c67.8,0,123.1,55.1,123.1,123.1
			s-55.1,123.1-123.1,123.1S27.2,218.1,27.2,150.3L27.2,150.3z M27.2,150.3"/>
	</g>
</g>
</svg>
