<?xml version="1.0" encoding="utf-8"?>
<!-- Generator: Adobe Illustrator 20.1.0, SVG Export Plug-In . SVG Version: 6.00 Build 0)  -->
<svg version="1.1"  xmlns="http://www.w3.org/2000/svg" xmlns:xlink="http://www.w3.org/1999/xlink" x="0px" y="0px"
	 viewBox="0 0 79.4 65.6"  xml:space="preserve">
<g>
	<path d="M32,37.1c0,2.8-2.3,5-5,5c-2.8,0-5-2.3-5-5c0-2.8,2.3-5,5-5C29.7,32.1,32,34.4,32,37.1L32,37.1z M32,37.1"/>
	<path d="M75.9,36.1l3.4-26.9L54.9,0L25.5,14L0,3.2l3.4,28.7L0.1,60.1l27.1,5.1L55,59.9l24.4,5.6L75.9,36.1z M54.8,2.8L76.4,11
		l-1.5,11.8l-21.6-5.5L54.8,2.8z M51.9,4.3l-1.1,12.3l0,0l-14.9,1.9l-0.1,0.3c0,0.1-1.7,6.5-3.6,9.4c-1.2-0.7-2.5-1.2-3.9-1.3
		L27,16.2L51.9,4.3z M49.6,31.8l-13,2c-0.7-2-2-3.7-3.6-4.9c1.7-2.7,3.2-8,3.6-9.4l14.1-1.8L49.6,31.8z M24.4,16.4L25.6,27
		c-3.9,0.5-7.2,3.3-8.4,7L6.1,32.3L5,22c3.7-0.2,6.4-1.4,8.2-3.6c1.6-1.9,2-4.2,2.1-5.9L24.4,16.4z M3.2,7.4l11.2,4.7
		c0,1.6-0.4,3.8-1.9,5.7c-1.6,1.9-4.1,3-7.5,3.2L3.2,7.4z M3.1,58l2.7-23.1l10.9,1.7c0,0.2,0,0.3,0,0.5c0,2.4,0.8,4.6,2.2,6.4
		L13.2,48l-1.8,11.5L3.1,58z M24.4,62l-12-2.3l1.7-11.1l5.4-4.3c1.7,1.7,3.9,2.9,6.4,3.1L24.4,62z M18.7,37.1c0-4.5,3.7-8.2,8.2-8.2
		c4.5,0,8.2,3.7,8.2,8.2c0,4.5-3.7,8.2-8.2,8.2C22.4,45.4,18.7,41.7,18.7,37.1L18.7,37.1z M27.3,62.5l-0.2,0l1.6-15.2
		c4.9-0.8,8.6-5,8.6-10.1c0-0.3,0-0.5,0-0.8l12.7-1.9l1.1,10.8c-5.6,0.3-9.7,2-12.3,5.1c-3.1,3.7-3.2,8.3-3,10.6L27.3,62.5z
		 M36.6,60.7c-0.1-2.2,0.1-6.4,2.8-9.7c2.4-2.9,6.4-4.5,11.7-4.8l1.1,11.5L36.6,60.7z M53.3,18.3l21.5,5.4l-1.3,10.2l-21.3-2.6
		L53.3,18.3z M70.6,42.7l-9.8-1.2L62.6,59l-7.9-1.7L52.5,34l0.2,0l20.6,2.6l3,25.6l-12.7-2.9l-1.7-16.5l8.7,1L70.6,42.7z M70.6,42.7
		"/>
</g>
</svg>
