<?xml version="1.0" encoding="utf-8"?>
<svg version="1.1" xmlns="http://www.w3.org/2000/svg" xmlns:xlink="http://www.w3.org/1999/xlink" x="0px" y="0px"
	 viewBox="0 0 31.3 43.9" style="enable-background:new 0 0 31.3 43.9;" xml:space="preserve">
<g>
	<g>
		<defs>
			<rect id="SVGID_1_" x="0.3" width="31" height="44.9"/>
		</defs>
		<clipPath id="SVGID_2_">
			<use xlink:href="#SVGID_1_"  style="overflow:visible;"/>
		</clipPath>
		<path style="clip-path:url(#SVGID_2_);" d="M26.5,4.6c-2.9-2.9-6.8-4.5-10.8-4.5c-4.1,0-8,1.6-10.9,4.5c-5.4,5.4-6,15.4-1.4,21.6l12.3,17.8l12.3-17.7
			C32.5,20.1,31.9,10,26.5,4.6L26.5,4.6z M15.8,20.9c-3.1,0-5.6-2.5-5.6-5.6c0-3.1,2.5-5.6,5.6-5.6c3.1,0,5.6,2.5,5.6,5.6
			C21.4,18.4,18.9,20.9,15.8,20.9L15.8,20.9z M15.8,20.9"/>
	</g>
</g>
<rect x="-32.7" y="-28" style="fill:none;" width="94" height="97"/>
</svg>
